<?xml version="1.0" standalone="no"?>
<!DOCTYPE svg PUBLIC "-//W3C//DTD SVG 20010904//EN"
 "http://www.w3.org/TR/2001/REC-SVG-20010904/DTD/svg10.dtd">
<svg version="1.0" xmlns="http://www.w3.org/2000/svg"
 width="500.000000pt" height="500.000000pt" viewBox="0 0 500.000000 500.000000"
 preserveAspectRatio="xMidYMid meet">

<g transform="translate(0.000000,500.000000) scale(0.100000,-0.100000)"
fill="#000000" stroke="none">
<path d="M1881 3464 c-81 -22 -149 -62 -217 -129 -55 -55 -89 -110 -132 -217
-10 -23 -18 -28 -47 -28 l-35 0 5 -242 c3 -134 8 -271 11 -305 l6 -63 54 0 54
0 0 132 0 131 28 -39 c60 -82 149 -146 252 -180 78 -26 224 -24 304 5 152 55
269 176 311 324 19 67 22 204 5 269 -29 109 -124 233 -221 290 -108 63 -259
84 -378 52z m323 -57 c234 -111 329 -384 215 -616 -137 -279 -516 -341 -736
-121 -87 88 -100 122 -109 290 -4 80 -7 152 -5 160 8 47 66 146 114 194 98 99
199 137 343 133 93 -3 108 -7 178 -40z"/>
<path d="M2537 2994 c-4 -4 -7 -20 -7 -35 0 -37 32 -56 67 -40 20 9 24 17 21
44 -3 29 -7 32 -38 35 -20 2 -39 0 -43 -4z"/>
<path d="M2680 2785 l0 -185 45 0 45 0 0 185 0 185 -45 0 -45 0 0 -185z"/>
<path d="M2530 2740 l0 -140 45 0 45 0 0 140 0 140 -45 0 -45 0 0 -140z"/>
<path d="M2878 2863 c-44 -27 -61 -71 -56 -137 4 -48 10 -63 37 -89 29 -29 37
-32 97 -32 64 0 67 1 102 40 l37 40 -40 3 c-23 2 -54 -4 -69 -12 -37 -19 -86
-2 -86 30 0 10 24 14 98 16 l97 3 -3 33 c-3 48 -28 89 -62 107 -38 20 -118 19
-152 -2z m114 -60 c29 -26 21 -33 -37 -33 -59 0 -64 4 -38 32 20 22 51 23 75
1z"/>
<path d="M3140 2740 l0 -140 45 0 45 0 0 93 c0 101 7 117 50 117 47 0 60 -27
60 -123 l0 -87 40 0 40 0 0 89 c0 99 11 121 59 121 44 0 51 -16 51 -117 l0
-93 45 0 45 0 0 73 c-1 105 -14 157 -45 184 -36 32 -104 32 -141 0 l-27 -23
-23 23 c-28 28 -97 32 -132 7 -20 -14 -22 -14 -22 0 0 12 -11 16 -45 16 l-45
0 0 -140z"/>
</g>
</svg>
